HIERARCHY
ROOT root
{
	OFFSET 0.000000 0.000000 0.000000
	CHANNELS 6 Xposition Yposition Zposition Zrotation Yrotation Xrotation
	JOINT lhip
	{
		OFFSET 0.058581 -0.082280 -0.017664
		CHANNELS 3 Zrotation Yrotation Xrotation
		JOINT lknee
		{
			OFFSET 0.043451 -0.386469 0.008037
			CHANNELS 3 Zrotation Yrotation Xrotation
			JOINT lankle
			{
				OFFSET -0.014790 -0.426874 -0.037428
				CHANNELS 3 Zrotation Yrotation Xrotation
				JOINT ltoe
				{
					OFFSET 0.041054 -0.060286 0.122042
					CHANNELS 3 Zrotation Yrotation Xrotation
					End Site
					{
						OFFSET 0.000000 0.000000 0.000000
					}
				}
			}
		}
	}
	JOINT rhip
	{
		OFFSET -0.060310 -0.090513 -0.013543
		CHANNELS 3 Zrotation Yrotation Xrotation
		JOINT rknee
		{
			OFFSET -0.043257 -0.383688 -0.004843
			CHANNELS 3 Zrotation Yrotation Xrotation
			JOINT rankle
			{
				OFFSET 0.019056 -0.420046 -0.034562
				CHANNELS 3 Zrotation Yrotation Xrotation
				JOINT rtoe
				{
					OFFSET -0.034840 -0.062106 0.130323
					CHANNELS 3 Zrotation Yrotation Xrotation
					End Site
					{
						OFFSET 0.000000 0.000000 0.000000
					}
				}
			}
		}
	}
	JOINT lowerback
	{
		OFFSET 0.004439 0.124404 -0.038385
		CHANNELS 3 Zrotation Yrotation Xrotation
		JOINT upperback
		{
			OFFSET 0.004488 0.137956 0.026820
			CHANNELS 3 Zrotation Yrotation Xrotation
			JOINT chest
			{
				OFFSET -0.002265 0.056032 0.002855
				CHANNELS 3 Zrotation Yrotation Xrotation
				JOINT lowerneck
				{
					OFFSET -0.013390 0.211636 -0.033468
					CHANNELS 3 Zrotation Yrotation Xrotation
					JOINT upperneck
					{
						OFFSET 0.010113 0.088937 0.050410
						CHANNELS 3 Zrotation Yrotation Xrotation
						End Site
						{
							OFFSET 0.000000 0.000000 0.000000
						}
					}
				}
				JOINT lclavicle
				{
					OFFSET 0.071702 0.114000 -0.018898
					CHANNELS 3 Zrotation Yrotation Xrotation
					JOINT lshoulder
					{
						OFFSET 0.122921 0.045205 -0.019046
						CHANNELS 3 Zrotation Yrotation Xrotation
						JOINT lelbow
						{
							OFFSET 0.255332 -0.015649 -0.022946
							CHANNELS 3 Zrotation Yrotation Xrotation
							JOINT lwrist
							{
								OFFSET 0.265709 0.012698 -0.007375
								CHANNELS 3 Zrotation Yrotation Xrotation
								End Site
								{
									OFFSET 0.000000 0.000000 0.000000
								}
							}
						}
					}
				}
				JOINT rclavicle
				{
					OFFSET -0.082954 0.112472 -0.023707
					CHANNELS 3 Zrotation Yrotation Xrotation
					JOINT rshoulder
					{
						OFFSET -0.113228 0.046853 -0.008472
						CHANNELS 3 Zrotation Yrotation Xrotation
						JOINT relbow
						{
							OFFSET -0.260127 -0.014369 -0.031269
							CHANNELS 3 Zrotation Yrotation Xrotation
							JOINT rwrist
							{
								OFFSET -0.269108 0.006794 -0.006027
								CHANNELS 3 Zrotation Yrotation Xrotation
								End Site
								{
									OFFSET 0.000000 0.000000 0.000000
								}
							}
						}
					}
				}
			}
		}
	}
}
MOTION
Frames: 14
Frame Time: 0.033333
1.160114 0.355307 0.618842 -110.004031 12.251765 136.594557 15.829395 40.093649 -119.455582 -7.181538 30.786192 66.617463 5.046723 3.553927 -7.723888 0.000000 -0.000000 0.000000 -12.070050 -3.438448 5.361885 5.993606 22.927005 4.776479 6.028863 -2.150131 -44.149681 0.000000 -0.000000 0.000000 2.231952 14.782237 41.975519 -3.394465 -10.889560 -11.523363 4.920340 2.113806 -14.022591 -5.283254 23.346405 -60.537325 1.448196 -6.233534 -9.223072 -11.885625 -47.033796 8.381085 -12.395708 -8.389279 0.012355 7.244552 -21.485764 12.299991 42.071113 -16.655033 -8.143976 31.270960 57.326763 28.242520 15.806670 34.917078 -8.761888 -11.240412 20.081287 9.606289 -51.367391 13.693353 -12.009868 
1.157079 0.355701 0.615875 -109.877603 12.180637 136.445546 15.639950 40.081336 -119.767331 -7.282574 30.784617 67.199953 5.102655 3.550800 -7.966493 0.000000 -0.000000 0.000000 -12.062942 -3.376283 5.729783 5.986740 23.114872 4.951024 6.093146 -2.291206 -44.324327 0.000000 -0.000000 0.000000 2.415894 14.762306 41.927762 -3.281406 -10.935869 -11.677910 5.049100 2.043472 -13.962446 -5.094691 23.022593 -60.293722 1.460091 -5.774096 -9.232380 -12.290805 -46.932947 8.659155 -12.642256 -8.167700 0.204833 7.117411 -21.759156 12.680051 42.381001 -16.317766 -8.393741 31.435175 57.260092 28.407279 16.329909 34.701671 -8.388362 -11.292010 20.281257 9.648260 -51.615425 13.602136 -11.967656 
1.155539 0.355969 0.614417 -109.837504 12.141329 136.386589 15.602046 40.072721 -119.849760 -7.286548 30.808284 67.420367 5.126720 3.522259 -8.067277 0.000000 -0.000000 0.000000 -12.087039 -3.341468 5.855956 5.983010 23.138379 5.026657 6.091992 -2.286711 -44.382691 0.000000 -0.000000 0.000000 2.463601 14.757736 41.901938 -3.221709 -10.946179 -11.683357 5.078726 2.029294 -13.951710 -5.122980 22.999743 -60.243554 1.451692 -5.719142 -9.243435 -12.342962 -46.880133 8.729149 -12.762845 -8.143130 0.232176 7.064851 -21.830602 12.759385 42.476791 -16.292110 -8.447284 31.505337 57.191575 28.429871 16.454354 34.711578 -8.314193 -11.295832 20.310419 9.710590 -51.687061 13.622863 -11.955262 
1.147775 0.355854 0.605536 -109.345062 11.531156 135.506698 15.090886 39.728173 -120.814604 -7.091806 31.066943 70.367837 5.637192 3.115803 -9.505663 0.000000 -0.000000 0.000000 -12.295669 -2.823326 7.507036 5.855107 23.493241 6.215708 6.111425 -1.938268 -45.134899 0.000000 -0.000000 0.000000 2.807946 14.764597 41.511344 -2.503280 -11.149509 -11.527263 5.231504 1.800466 -13.825505 -5.310452 23.084961 -60.023221 1.328577 -5.531372 -9.283956 -12.392837 -46.496274 9.903691 -14.259971 -7.970378 0.162148 6.325811 -22.765576 13.307688 43.872009 -15.996048 -9.044808 31.888416 56.120276 28.600104 18.368527 34.601049 -7.470489 -11.603965 21.309290 10.584460 -52.950756 13.732954 -11.946587 
1.147373 0.356002 0.605217 -109.341990 11.519686 135.483965 15.088947 39.724882 -120.818614 -7.093900 31.066794 70.416764 5.644575 3.116378 -9.530857 0.000000 -0.000000 0.000000 -12.304530 -2.815961 7.538854 5.851777 23.519056 6.241971 6.109679 -1.938788 -45.148462 0.000000 -0.000000 0.000000 2.816019 14.768875 41.514715 -2.492790 -11.153300 -11.520013 5.239754 1.797103 -13.820782 -5.304290 23.070889 -60.008311 1.330437 -5.510615 -9.288818 -12.410230 -46.485570 9.919328 -14.269581 -7.956748 0.170729 6.310465 -22.786981 13.338925 43.889715 -15.984006 -9.054864 31.910046 56.110482 28.614466 18.396105 34.592665 -7.447410 -11.613476 21.319079 10.582144 -52.962955 13.732284 -11.943182 
1.146956 0.356211 0.604945 -109.341449 11.512462 135.473021 15.087420 39.724623 -120.821201 -7.094543 31.068397 70.444300 5.649756 3.116600 -9.545793 0.000000 -0.000000 0.000000 -12.310614 -2.809428 7.554181 5.849795 23.531521 6.259610 6.111168 -1.936771 -45.152686 0.000000 -0.000000 0.000000 2.821620 14.770078 41.516301 -2.485561 -11.153166 -11.515277 5.243754 1.796210 -13.815953 -5.304669 23.067379 -60.001368 1.327947 -5.501975 -9.290645 -12.412700 -46.478009 9.926842 -14.280479 -7.953941 0.174356 6.300799 -22.794918 13.357396 43.897653 -15.976022 -9.061033 31.916149 56.102272 28.617976 18.414749 34.593679 -7.435863 -11.617789 21.323340 10.585503 -52.968773 13.727619 -11.945333 
1.146854 0.356281 0.604893 -109.340877 11.510010 135.469418 15.086761 39.723847 -120.822052 -7.094625 31.069003 70.453952 5.651962 3.116792 -9.551582 0.000000 -0.000000 0.000000 -12.311771 -2.807194 7.559453 5.849331 23.535042 6.266461 6.111490 -1.936264 -45.154114 0.000000 -0.000000 0.000000 2.823973 14.769990 41.516997 -2.482930 -11.153210 -11.514244 5.244975 1.795846 -13.813472 -5.305873 23.065815 -59.998790 1.326008 -5.498752 -9.291312 -12.411624 -46.475874 9.928635 -14.288628 -7.954289 0.175994 6.298528 -22.796597 13.362736 43.901367 -15.971390 -9.065078 31.916681 56.100226 28.619215 18.422132 34.594949 -7.431478 -11.619964 21.323972 10.586195 -52.970859 13.725377 -11.946450 
1.141164 0.357876 0.601720 -108.991515 10.914200 134.876529 14.741517 39.257212 -121.036757 -7.018840 31.155234 72.019771 6.253781 3.171728 -10.610668 0.000000 -0.000000 0.000000 -12.159703 -2.415859 8.332184 5.671603 23.828156 7.860756 6.179697 -1.700363 -45.145843 0.000000 -0.000000 0.000000 3.111293 14.750935 41.417046 -1.869514 -11.205006 -11.379606 5.351916 1.649491 -13.081181 -5.824633 22.940632 -59.885484 0.437659 -5.127741 -9.227490 -10.141339 -46.134442 9.318071 -17.631985 -8.721824 0.319203 6.309867 -23.141085 13.368314 45.220218 -13.813558 -10.626658 30.585580 56.085861 26.837069 20.680902 34.545085 -6.016369 -12.261024 21.523006 10.566858 -53.390428 13.023263 -12.056891 
1.141343 0.358189 0.602117 -108.953339 10.876049 134.896121 14.728917 39.201618 -121.023510 -7.025259 31.158522 71.977925 6.261515 3.174988 -10.604573 0.000000 -0.000000 0.000000 -12.126968 -2.414099 8.311415 5.660867 23.804124 7.894619 6.173414 -1.716907 -45.135350 0.000000 -0.000000 0.000000 3.125694 14.729097 41.417163 -1.836661 -11.219042 -11.377775 5.363725 1.652117 -13.003090 -5.868032 22.875054 -59.808218 0.398359 -5.030039 -9.267212 -9.993048 -46.109364 9.295551 -17.886639 -8.736189 0.318458 6.306805 -23.395225 13.241454 45.369487 -13.589773 -10.849149 30.476578 56.117274 26.798744 20.663074 34.643238 -6.053008 -12.296203 21.453356 10.522131 -53.469244 12.968070 -12.035532 
1.142513 0.358579 0.604953 -108.489623 10.414154 135.109450 14.689279 38.489572 -120.804129 -7.030232 31.207607 71.299557 6.325389 3.239894 -10.344250 0.000000 -0.000000 0.000000 -11.788628 -2.323950 8.028204 5.520646 23.461382 8.273439 6.152151 -1.832469 -44.923285 0.000000 -0.000000 0.000000 3.230554 14.513437 41.405449 -1.419110 -11.357534 -11.200902 5.465721 1.628641 -12.360310 -6.339775 22.353546 -58.989733 -0.038796 -4.104593 -9.614899 -7.866942 -45.624399 8.762544 -20.531335 -8.882429 0.373603 5.704813 -26.522421 11.940850 47.140123 -11.279865 -13.559703 29.037020 56.322853 26.037342 20.254767 35.638177 -6.317475 -12.310347 20.728512 10.103029 -54.482961 12.576172 -11.882567 
1.142799 0.359985 0.607076 -108.380411 10.302540 135.139662 14.701959 38.393485 -120.741146 -7.030928 31.195726 71.187683 6.338237 3.249780 -10.280710 0.000000 -0.000000 0.000000 -11.676996 -2.290540 7.910516 5.519232 23.457884 8.301506 6.146584 -1.844642 -44.889003 0.000000 -0.000000 0.000000 3.199103 14.557713 41.554092 -1.587485 -11.337033 -11.035301 5.274557 1.698505 -12.106720 -6.337370 22.318562 -58.878461 -0.048664 -4.031855 -9.541191 -7.935041 -45.564314 8.992257 -21.046671 -8.890924 0.467351 5.513670 -26.706275 11.837913 47.150090 -11.010635 -13.887267 28.658369 56.395302 25.775505 20.095984 35.672475 -6.465555 -12.432267 20.761982 10.030613 -54.490217 12.461388 -11.928926 
1.147905 0.358436 0.612189 -107.838103 9.460366 135.625802 15.030915 37.376119 -119.957104 -5.552666 32.154926 69.778006 5.779436 1.931203 -9.291824 0.000000 -0.000000 0.000000 -11.384979 -1.884158 6.518426 5.115783 21.955227 9.647106 5.763352 -0.104730 -44.079982 0.000000 -0.000000 0.000000 3.300931 13.543350 40.875095 -2.029460 -11.734874 -8.498459 4.455934 2.009369 -13.121297 -7.300062 23.899246 -57.456823 1.405632 -4.942479 -9.174140 -4.398633 -45.684861 9.781370 -22.756340 -9.822227 -3.046373 4.580142 -28.257470 4.735386 42.538684 -12.010232 -16.235226 27.802249 54.958027 31.755012 12.822674 39.697759 -16.315347 -12.800625 20.124407 8.231353 -52.132808 15.147517 -10.408282 
1.150277 0.358567 0.615945 -107.151619 9.213254 135.679371 14.705768 36.277316 -119.872726 -6.871917 31.295053 68.175271 6.373558 3.117983 -8.763175 0.000000 -0.000000 0.000000 -10.649180 -1.248366 6.588728 5.151142 23.032248 9.573438 5.841247 -1.803230 -44.121705 0.000000 -0.000000 0.000000 3.665033 13.486409 41.869810 -1.620565 -12.011265 -9.639702 4.932682 1.626554 -11.739092 -5.597723 22.195940 -55.533136 1.208105 -2.623821 -9.462988 -5.060969 -46.439797 8.551519 -21.881541 -8.395784 -0.943657 5.526021 -28.358805 5.370001 42.733251 -9.263466 -20.627302 23.493262 57.928027 23.206279 18.774174 36.855451 -7.488293 -13.659392 20.269832 8.500759 -52.708989 11.569881 -13.125833 
1.151772 0.358305 0.615891 -107.120879 9.236207 135.710733 14.703416 36.268167 -119.866303 -6.876790 31.291558 68.155658 6.374560 3.119840 -8.756197 0.000000 -0.000000 0.000000 -10.647080 -1.244039 6.579247 5.145337 23.040375 9.568551 5.840001 -1.810520 -44.121075 0.000000 -0.000000 0.000000 3.641108 13.494244 41.929862 -1.653261 -12.025068 -9.595377 4.908198 1.616889 -11.701555 -5.587679 22.186565 -55.503082 1.218538 -2.615155 -9.449311 -5.067985 -46.450815 8.559206 -21.874769 -8.397185 -0.947954 5.524575 -28.348722 5.365701 42.708352 -9.259118 -20.651755 23.456205 57.944683 23.190587 18.755038 36.864529 -7.502011 -13.672491 20.274465 8.490020 -52.696293 11.560017 -13.135950 
